<svg width="32" height="32" viewBox="0 0 32 32" fill="none" xmlns="http://www.w3.org/2000/svg">
<rect width="32" height="32" rx="16" fill="#D9D9D9"/>
<path d="M23.3125 9.5C24.2266 9.5 25 10.2734 25 11.1875C25 11.75 24.7188 12.2422 24.2969 12.5586L16.668 18.2891C16.2461 18.6055 15.7188 18.6055 15.2969 18.2891L7.66797 12.5586C7.24609 12.2422 7 11.75 7 11.1875C7 10.2734 7.73828 9.5 8.6875 9.5H23.3125ZM14.6289 19.2031C15.4375 19.8008 16.5273 19.8008 17.3359 19.2031L25 13.4375V20.75C25 22.0156 23.9805 23 22.75 23H9.25C7.98438 23 7 22.0156 7 20.75V13.4375L14.6289 19.2031Z" fill="#333333"/>
</svg>
