<svg width="33" height="33" viewBox="0 0 33 33" fill="none" xmlns="http://www.w3.org/2000/svg">
<rect y="0.5" width="33" height="32" rx="2" fill="#FEFEFE"/>
<path d="M31.185 0H1.815C1.33363 0 0.87198 0.191223 0.531601 0.531601C0.191223 0.87198 0 1.33363 0 1.815V31.185C0 31.6664 0.191223 32.128 0.531601 32.4684C0.87198 32.8088 1.33363 33 1.815 33H17.622V20.2125H13.332V15.2625H17.622V11.55C17.5331 10.6784 17.636 9.79791 17.9235 8.97029C18.2109 8.14266 18.676 7.38795 19.286 6.75908C19.896 6.13021 20.6362 5.64241 21.4547 5.32989C22.2731 5.01738 23.1501 4.88772 24.024 4.95C25.3083 4.94113 26.5919 5.00725 27.8685 5.148V9.603H25.245C23.166 9.603 22.77 10.593 22.77 12.0285V15.213H27.72L27.0765 20.163H22.77V33H31.185C31.4233 33 31.6594 32.9531 31.8796 32.8618C32.0998 32.7706 32.2999 32.6369 32.4684 32.4684C32.6369 32.2999 32.7706 32.0998 32.8618 31.8796C32.9531 31.6594 33 31.4233 33 31.185V1.815C33 1.57665 32.9531 1.34064 32.8618 1.12043C32.7706 0.900224 32.6369 0.70014 32.4684 0.531601C32.2999 0.363063 32.0998 0.229371 31.8796 0.138159C31.6594 0.0469465 31.4233 0 31.185 0Z" fill="#005C35"/>
</svg>
