<svg width="32" height="32" viewBox="0 0 32 32" fill="none" xmlns="http://www.w3.org/2000/svg">
<rect width="32" height="32" rx="2" fill="#FEFEFE"/>
<path d="M16.0006 7.78418C14.3756 7.78418 12.7871 8.26603 11.436 9.16879C10.0848 10.0716 9.03176 11.3547 8.4099 12.8559C7.78803 14.3572 7.62533 16.0091 7.94235 17.6028C8.25937 19.1965 9.04188 20.6605 10.1909 21.8095C11.34 22.9585 12.804 23.741 14.3977 24.058C15.9915 24.375 17.6435 24.2123 19.1448 23.5904C20.6461 22.9686 21.9293 21.9156 22.8321 20.5645C23.7349 19.2134 24.2168 17.6249 24.2168 16C24.2168 14.9211 24.0043 13.8527 23.5914 12.8559C23.1785 11.8591 22.5733 10.9534 21.8104 10.1905C21.0474 9.42758 20.1417 8.8224 19.1448 8.40953C18.148 7.99665 17.0796 7.78416 16.0006 7.78418ZM16.0006 21.3337C14.9457 21.3337 13.9144 21.0209 13.0372 20.4348C12.1601 19.8487 11.4764 19.0157 11.0727 18.0411C10.669 17.0665 10.5634 15.994 10.7692 14.9594C10.975 13.9247 11.483 12.9743 12.229 12.2284C12.975 11.4825 13.9254 10.9745 14.9601 10.7687C15.9948 10.5629 17.0672 10.6685 18.0419 11.0722C19.0166 11.4759 19.8496 12.1596 20.4357 13.0367C21.0218 13.9138 21.3346 14.9451 21.3346 16C21.3347 16.7005 21.1968 17.3941 20.9288 18.0412C20.6607 18.6884 20.2678 19.2764 19.7725 19.7717C19.2772 20.267 18.6891 20.6599 18.0419 20.9279C17.3948 21.1959 16.7011 21.3338 16.0006 21.3337Z" fill="#005C35"/>
<path d="M31.9044 9.40351C31.8782 8.07624 31.6269 6.76306 31.1612 5.51989C30.7587 4.45251 30.129 3.48539 29.3156 2.68555C28.5169 1.87138 27.55 1.24151 26.4825 0.84C25.2393 0.374053 23.926 0.122763 22.5987 0.0968639C20.8926 0.0191999 20.3472 0 16.0019 0C11.6567 0 11.1109 0.0180159 9.40385 0.0968639C8.07655 0.123092 6.76332 0.374371 5.5201 0.84C4.45238 1.24188 3.48511 1.87168 2.68566 2.68555C1.87101 3.48433 1.24109 4.45176 0.840145 5.51989C0.374503 6.76307 0.123214 8.07625 0.0969799 9.40351C0.0181128 11.1095 0 11.6549 0 16C0 20.3451 0.0181128 20.8905 0.0969478 22.5964C0.123187 23.9237 0.374487 25.2369 0.840145 26.4801C1.24121 27.5482 1.87111 28.5156 2.68566 29.3145C3.4855 30.1278 4.45266 30.7575 5.5201 31.1599C6.76336 31.6254 8.07657 31.8767 9.40385 31.9031C11.1109 31.9806 11.6554 32 16.0006 32C20.3459 32 20.8913 31.9819 22.5974 31.9031C23.9247 31.8768 25.2379 31.6255 26.4811 31.1599C27.5442 30.7489 28.5097 30.1203 29.3156 29.3144C30.1215 28.5085 30.7502 27.5431 31.1612 26.4801C31.6274 25.2371 31.8787 23.9238 31.9044 22.5964C31.982 20.8892 32 20.3451 32 16C32 11.6549 31.982 11.1095 31.9044 9.40351ZM29.0259 22.466C29.0136 23.4806 28.8274 24.4856 28.4754 25.4373C28.2091 26.1273 27.8013 26.7539 27.2782 27.2768C26.7551 27.7996 26.1283 28.2072 25.4381 28.4732C24.4866 28.8259 23.4814 29.0121 22.4667 29.0236C20.7801 29.1011 20.2735 29.1166 16.0005 29.1166C11.7275 29.1166 11.2224 29.1011 9.53627 29.0236C8.52155 29.012 7.51639 28.8258 6.56483 28.4732C5.86984 28.2163 5.24103 27.8075 4.72438 27.2764C4.1925 26.7609 3.78344 26.1324 3.52753 25.4373C3.17475 24.4859 2.98856 23.4807 2.97711 22.466C2.8995 20.7795 2.88406 20.2729 2.88406 16.0001C2.88406 11.7273 2.90085 11.2221 2.97711 9.53419C2.98989 8.51966 3.17605 7.51478 3.52753 6.56299C3.78436 5.86802 4.19328 5.23923 4.72438 4.72261C5.24013 4.19045 5.8692 3.78137 6.56483 3.52581C7.51636 3.17309 8.52154 2.9869 9.53627 2.97541C11.2229 2.89782 11.7294 2.88237 16.0005 2.88237C20.2716 2.88237 20.7787 2.89915 22.4667 2.97541C23.4813 2.98819 24.4863 3.17434 25.4381 3.52581C26.1285 3.79181 26.7554 4.19951 27.2786 4.72263C27.8017 5.24575 28.2094 5.87268 28.4754 6.56301C28.8282 7.51446 29.0144 8.51955 29.0259 9.53421C29.1035 11.2222 29.1189 11.7274 29.1189 16.0001C29.1189 20.2729 29.1035 20.7781 29.0259 22.466Z" fill="#005C35"/>
<path d="M24.5427 5.5392C24.0336 5.53929 23.5447 5.74161 23.1847 6.10164C22.8248 6.46168 22.6226 6.94994 22.6226 7.45904C22.6227 7.96814 22.825 8.45637 23.185 8.81633C23.545 9.1763 24.0333 9.37853 24.5424 9.37853C25.0515 9.37853 25.5398 9.1763 25.8998 8.81633C26.2598 8.45637 26.4621 7.96814 26.4621 7.45904C26.4622 6.94994 26.26 6.46168 25.9 6.10164C25.5401 5.74161 25.0518 5.53929 24.5427 5.5392Z" fill="#005C35"/>
</svg>
