<svg width="32" height="32" viewBox="0 0 32 32" fill="none" xmlns="http://www.w3.org/2000/svg">
<rect width="32" height="32" rx="16" fill="#D9D9D9"/>
<path d="M15.1562 24.8281C13.3281 22.543 9.25 17.0938 9.25 14C9.25 10.2734 12.2383 7.25 16 7.25C19.7266 7.25 22.75 10.2734 22.75 14C22.75 17.0938 18.6367 22.543 16.8086 24.8281C16.3867 25.3555 15.5781 25.3555 15.1562 24.8281ZM16 16.25C17.2305 16.25 18.25 15.2656 18.25 14C18.25 12.7695 17.2305 11.75 16 11.75C14.7344 11.75 13.75 12.7695 13.75 14C13.75 15.2656 14.7344 16.25 16 16.25Z" fill="#333333"/>
</svg>
