<svg width="32" height="32" viewBox="0 0 32 32" fill="none" xmlns="http://www.w3.org/2000/svg">
<rect width="32" height="32" rx="16" fill="#D9D9D9"/>
<path d="M24.9648 20.8555L24.1211 24.4062C24.0156 24.9336 23.5938 25.2852 23.0664 25.2852C14.207 25.25 7 18.043 7 9.18359C7 8.65625 7.31641 8.23438 7.84375 8.12891L11.3945 7.28516C11.8867 7.17969 12.4141 7.46094 12.625 7.91797L14.2773 11.75C14.4531 12.207 14.3477 12.7344 13.9609 13.0156L12.0625 14.5625C13.2578 16.9883 15.2266 18.957 17.6875 20.1523L19.2344 18.2539C19.5156 17.9023 20.043 17.7617 20.5 17.9375L24.332 19.5898C24.7891 19.8359 25.0703 20.3633 24.9648 20.8555Z" fill="#333333"/>
</svg>
