<svg width="32" height="32" viewBox="0 0 32 32" fill="none" xmlns="http://www.w3.org/2000/svg">
<rect width="32" height="32" rx="2" fill="#005C35"/>
<path d="M19.9945 12.5972C17.8237 11.4859 15.2165 12.1521 13.862 14.0615L15.7424 15.0242C16.5527 14.1153 17.9134 13.8337 19.0608 14.4211C20.4207 15.1173 20.9657 16.7705 20.2781 18.1135L17.1035 24.3147C16.4159 25.6578 14.7561 26.1822 13.3962 25.486C12.0775 24.811 11.5252 23.2362 12.1197 21.9168L10.2717 20.9707C9.16241 23.2982 10.1238 26.1126 12.4624 27.3099C14.8423 28.5282 17.747 27.6106 18.9502 25.2602L22.1249 19.059L22.1797 18.9484C23.298 16.6186 22.3372 13.7965 19.9945 12.5972ZM19.5365 4.68978C17.1567 3.47143 14.252 4.38912 13.0487 6.73949L9.87407 12.9407L9.81928 13.0513C8.701 15.3811 9.6618 18.2031 12.0045 19.4024C14.1753 20.5138 16.7825 19.8476 18.137 17.9382L16.2566 16.9755C15.4463 17.8844 14.0855 18.1659 12.9382 17.5786C11.5783 16.8824 11.0332 15.2292 11.7208 13.8861L14.8955 7.68493C15.5831 6.34185 17.2429 5.81746 18.6028 6.51366C19.9214 7.18872 20.4738 8.76347 19.8793 10.0829L21.7273 11.0289C22.8366 8.70144 21.8752 5.88704 19.5365 4.68978Z" fill="white"/>
</svg>
