<svg width="33" height="33" viewBox="0 0 33 33" fill="none" xmlns="http://www.w3.org/2000/svg">
<mask id="mask0_36_5430" style="mask-type:luminance" maskUnits="userSpaceOnUse" x="0" y="0" width="33" height="33">
<path d="M0 0H32.9068V32.9068H0V0Z" fill="white"/>
</mask>
<g mask="url(#mask0_36_5430)">
<path d="M3.85627 0H29.0506C31.1803 0 32.9068 1.72651 32.9068 3.85627V29.0506C32.9068 31.1803 31.1803 32.9068 29.0506 32.9068H3.85627C1.72651 32.9068 0 31.1803 0 29.0506V3.85627C0 1.72651 1.72651 0 3.85627 0Z" fill="#005C35"/>
<path d="M10.0311 6.42773H6.62935L14.0611 14.9218L5.31822 26.4803H12.1639L17.5256 19.4701L23.6607 26.4803H27.0645L19.1154 17.395L27.5025 6.42773H20.4831L15.6366 12.8353L10.0311 6.42773ZM11.225 24.4442H9.34005L21.5073 8.3569H23.5301L11.225 24.4442Z" fill="white"/>
</g>
</svg>
