<svg width="32" height="32" viewBox="0 0 32 32" fill="none" xmlns="http://www.w3.org/2000/svg">
<rect width="32" height="32" rx="16" fill="#D9D9D9"/>
<path d="M19.375 16.25C19.375 17.0586 19.3047 17.7969 19.2344 18.5H12.7305C12.6602 17.7969 12.5898 17.0586 12.5898 16.25C12.5898 15.4766 12.6602 14.7383 12.7305 14H19.2344C19.3047 14.7383 19.375 15.4766 19.375 16.25ZM24.6836 14C24.8945 14.7383 25 15.4766 25 16.25C25 17.0586 24.8945 17.7969 24.6836 18.5H20.3594C20.4297 17.7969 20.5 17.0234 20.5 16.25C20.5 15.4766 20.4297 14.7383 20.3594 14H24.6836ZM24.332 12.875H20.2188C19.8672 10.6602 19.1641 8.76172 18.2852 7.56641C21.0273 8.30469 23.2773 10.2734 24.332 12.875ZM19.0938 12.875H12.8711C13.082 11.6094 13.4336 10.4844 13.8203 9.57031C14.207 8.72656 14.5938 8.12891 15.0156 7.74219C15.4023 7.39062 15.7188 7.25 16 7.25C16.2461 7.25 16.5625 7.39062 16.9492 7.74219C17.3711 8.12891 17.7578 8.72656 18.1445 9.57031C18.5312 10.4844 18.8828 11.6094 19.0938 12.875ZM7.63281 12.875C8.6875 10.2734 10.9375 8.30469 13.6797 7.56641C12.8008 8.76172 12.0977 10.6602 11.7461 12.875H7.63281ZM11.6055 14C11.5352 14.7383 11.4648 15.4766 11.4648 16.25C11.4648 17.0234 11.5352 17.7969 11.6055 18.5H7.28125C7.07031 17.7969 7 17.0586 7 16.25C7 15.4766 7.07031 14.7383 7.28125 14H11.6055ZM13.8203 22.9648C13.4336 22.0508 13.082 20.9258 12.8711 19.625H19.0938C18.8828 20.9258 18.5312 22.0508 18.1445 22.9648C17.7578 23.8086 17.3711 24.4062 16.9492 24.793C16.5625 25.1445 16.2461 25.25 15.9648 25.25C15.7188 25.25 15.4023 25.1445 15.0156 24.793C14.5938 24.4062 14.207 23.8086 13.8203 22.9648ZM13.6797 24.9688C10.9375 24.2305 8.6875 22.2617 7.63281 19.625H11.7461C12.0977 21.875 12.8008 23.7734 13.6797 24.9688ZM18.2852 24.9688C19.1641 23.7734 19.8672 21.875 20.2188 19.625H24.332C23.2773 22.2617 21.0273 24.2305 18.2852 24.9688Z" fill="#333333"/>
</svg>
