<svg xmlns="http://www.w3.org/2000/svg" xmlns:xlink="http://www.w3.org/1999/xlink" viewBox="0 0 348.17 325.18"><defs><style>.cls-1{fill:none;}.cls-13,.cls-2{fill:#fcc13d;}.cls-2{opacity:0.3;}.cls-3,.cls-9{fill:#b59afe;}.cls-3{opacity:0.1;}.cls-4{fill:#dff2f8;}.cls-5{fill:#66b6ff;}.cls-6{fill:#3a9afe;}.cls-7{clip-path:url(#clip-path);}.cls-10,.cls-8{fill:#fff;}.cls-8{opacity:0.4;}.cls-11{fill:url(#linear-gradient);}.cls-12{fill:#ccc4c0;}.cls-14,.cls-16,.cls-17,.cls-24{fill:#d17e46;}.cls-15{fill:#ffc536;}.cls-16{font-size:17.14px;}.cls-16,.cls-17,.cls-24{font-family:Montserrat-ExtraBold, Montserrat;font-weight:800;}.cls-17{font-size:7.48px;}.cls-18{letter-spacing:-0.02em;}.cls-19{letter-spacing:-0.01em;}.cls-20{letter-spacing:-0.01em;}.cls-21{clip-path:url(#clip-path-2);}.cls-22{opacity:0.2;}.cls-23{clip-path:url(#clip-path-3);}.cls-24{font-size:7.1px;}.cls-25{letter-spacing:-0.01em;}</style><clipPath id="clip-path" transform="translate(20.37 51.07)"><rect class="cls-1" x="76.77" y="69.55" width="174.25" height="107.17"/></clipPath><linearGradient id="linear-gradient" x1="91.65" y1="161.76" x2="171.95" y2="161.76" gradientUnits="userSpaceOnUse"><stop offset="0" stop-color="#b59afe"/><stop offset="0.29" stop-color="#b09afe"/><stop offset="1" stop-color="#3a9afe"/></linearGradient><clipPath id="clip-path-2" transform="translate(20.37 51.07)"><polygon class="cls-1" points="101.03 216.49 64.13 216.49 75.16 166.02 90 166.02 101.03 216.49"/></clipPath><clipPath id="clip-path-3" transform="translate(20.37 51.07)"><polygon class="cls-1" points="269.59 216.49 232.69 216.49 243.72 166.02 258.56 166.02 269.59 216.49"/></clipPath></defs><g id="Layer_2" data-name="Layer 2"><g id="OBJECTS"><path class="cls-2" d="M312,106.18l-7.8,3.29a37.5,37.5,0,0,0-3.42-3.37L304,98.25a6.08,6.08,0,0,0-3.33-7.9l-11.8-4.81A6.09,6.09,0,0,0,281,88.87l-3.19,7.85a38.45,38.45,0,0,0-4.8,0l-3.29-7.81a6.06,6.06,0,0,0-7.93-3.23L250,90.64a6.08,6.08,0,0,0-3.23,7.94l3.29,7.81a37.38,37.38,0,0,0-3.37,3.41l-7.85-3.2a6.08,6.08,0,0,0-7.9,3.33l-4.81,11.8a6.08,6.08,0,0,0,3.33,7.9l7.85,3.2a38.29,38.29,0,0,0,0,4.79l-7.81,3.29a6.08,6.08,0,0,0-3.23,7.94l4.94,11.75a6.08,6.08,0,0,0,7.94,3.23l7.81-3.29a36.14,36.14,0,0,0,3.42,3.36l-3.21,7.85a6.07,6.07,0,0,0,3.33,7.9l11.8,4.81a6.07,6.07,0,0,0,7.9-3.32l3.2-7.85a38.3,38.3,0,0,0,4.79,0l3.29,7.81a6.08,6.08,0,0,0,7.93,3.24l11.75-4.94a6.09,6.09,0,0,0,3.24-8l-3.29-7.8a40,40,0,0,0,3.36-3.41l7.86,3.2a6.09,6.09,0,0,0,7.89-3.33l4.82-11.8a6.1,6.1,0,0,0-3.33-7.91l-7.85-3.19a38.29,38.29,0,0,0,0-4.79l7.81-3.29a6.08,6.08,0,0,0,3.23-7.94L320,109.41A6.1,6.1,0,0,0,312,106.18Zm-9.43,17.46A29.28,29.28,0,1,1,264.23,108,29.27,29.27,0,0,1,302.57,123.64Z" transform="translate(20.37 51.07)"/><path class="cls-2" d="M111.07,65.85l-7.81,3.28a37.5,37.5,0,0,0-3.42-3.37l3.21-7.85A6.08,6.08,0,0,0,99.73,50L87.92,45.2A6.08,6.08,0,0,0,80,48.53l-3.2,7.85a38.29,38.29,0,0,0-4.79,0l-3.29-7.81a6.08,6.08,0,0,0-7.94-3.23L49.06,50.3a6.08,6.08,0,0,0-3.24,7.94l3.29,7.81a37.26,37.26,0,0,0-3.36,3.41l-7.86-3.2A6.09,6.09,0,0,0,30,69.59l-4.8,11.8a6.07,6.07,0,0,0,3.32,7.9l7.85,3.2a38.45,38.45,0,0,0,0,4.8l-7.8,3.28a6.08,6.08,0,0,0-3.24,7.94l4.95,11.75a6.06,6.06,0,0,0,7.93,3.23L46,120.2a34.88,34.88,0,0,0,3.41,3.36l-3.21,7.85a6.09,6.09,0,0,0,3.33,7.91l11.81,4.8a6.05,6.05,0,0,0,7.89-3.32l3.2-7.85a38.45,38.45,0,0,0,4.8,0l3.28,7.81A6.08,6.08,0,0,0,88.49,144L100.24,139a6.09,6.09,0,0,0,3.23-7.94l-3.29-7.81a37.26,37.26,0,0,0,3.36-3.41l7.86,3.2a6.08,6.08,0,0,0,7.9-3.32l4.81-11.81a6.08,6.08,0,0,0-3.33-7.9l-7.85-3.19a38.44,38.44,0,0,0,0-4.8l7.81-3.29A6.07,6.07,0,0,0,124,80.83L119,69.08A6.07,6.07,0,0,0,111.07,65.85Zm-9.44,17.46A29.28,29.28,0,1,1,63.29,67.68,29.28,29.28,0,0,1,101.63,83.31Z" transform="translate(20.37 51.07)"/><path class="cls-3" d="M321.28,226.25c0,18-71.92,32.63-160.64,32.63S0,244.27,0,226.25s71.92-32.63,160.64-32.63S321.28,208.23,321.28,226.25Z" transform="translate(20.37 51.07)"/><path class="cls-4" d="M67.32,14.21A15.29,15.29,0,0,0,52.51,25.72a10.64,10.64,0,0,0-20-.89,6,6,0,0,0-10.9,2.65H82.49A15.31,15.31,0,0,0,67.32,14.21Z" transform="translate(20.37 51.07)"/><path class="cls-4" d="M215.06,4a10.65,10.65,0,0,0-9.76,6.4A15.29,15.29,0,0,0,176,11.51a10.63,10.63,0,0,0-20-.88,6,6,0,0,0-10.91,2.64H225.6A10.63,10.63,0,0,0,215.06,4Z" transform="translate(20.37 51.07)"/><path class="cls-4" d="M313.75,8.56a14.15,14.15,0,0,0-13.08,8.76,8,8,0,0,0-14.51,3.52H327.8A14.18,14.18,0,0,0,313.75,8.56Z" transform="translate(20.37 51.07)"/><path class="cls-5" d="M55.84,185.67v10.49a12,12,0,0,0,12,12H260a12,12,0,0,0,12-12V185.67Z" transform="translate(20.37 51.07)"/><path class="cls-6" d="M130.8,185.67v3.21a3.67,3.67,0,0,0,3.67,3.67h58.85a3.68,3.68,0,0,0,3.67-3.67v-3.21Z" transform="translate(20.37 51.07)"/><rect class="cls-6" x="90.34" y="111.74" width="187.84" height="124.94" rx="10.41"/><rect class="cls-4" x="97.14" y="120.62" width="174.25" height="107.17"/><rect class="cls-4" x="97.14" y="120.62" width="174.25" height="107.17"/><g class="cls-7"><rect class="cls-8" x="2.83" y="76.78" width="231.97" height="10.31" transform="translate(-2.77 159.09) rotate(-45)"/><rect class="cls-8" x="-77.93" y="101.73" width="440.31" height="19.57" transform="translate(-16.83 184.3) rotate(-45)"/><rect class="cls-8" x="116.71" y="127.42" width="231.97" height="10.31" transform="translate(-5.22 254.44) rotate(-45)"/></g><path class="cls-9" d="M161.16,95.21l-4.91,2.07a24,24,0,0,0-2.16-2.12l2-5a3.83,3.83,0,0,0-2.09-5l-7.43-3a3.83,3.83,0,0,0-5,2.09l-2,4.94a25.37,25.37,0,0,0-3,0l-2.07-4.92a3.83,3.83,0,0,0-5-2l-7.39,3.12a3.81,3.81,0,0,0-2,5l2.07,4.92A23.88,23.88,0,0,0,120,97.49l-5-2a3.83,3.83,0,0,0-5,2.1l-3,7.43a3.83,3.83,0,0,0,2.09,5l5,2a23.42,23.42,0,0,0,0,3l-4.92,2.07a3.83,3.83,0,0,0-2,5l3.11,7.39a3.84,3.84,0,0,0,5,2l4.91-2.07a23.79,23.79,0,0,0,2.15,2.11l-2,4.94a3.84,3.84,0,0,0,2.1,5l7.43,3a3.82,3.82,0,0,0,5-2.1l2-4.94a25.36,25.36,0,0,0,3,0l2.07,4.91a3.84,3.84,0,0,0,5,2l7.39-3.11a3.83,3.83,0,0,0,2-5l-2.07-4.92a25.06,25.06,0,0,0,2.11-2.14l5,2a3.83,3.83,0,0,0,5-2.09l3-7.43a3.83,3.83,0,0,0-2.1-5l-4.94-2a23.42,23.42,0,0,0,0-3l4.91-2.06a3.83,3.83,0,0,0,2-5l-3.11-7.4A3.84,3.84,0,0,0,161.16,95.21ZM152,107.57a14.89,14.89,0,1,1-19.5-7.94A14.89,14.89,0,0,1,152,107.57Z" transform="translate(20.37 51.07)"/><path class="cls-6" d="M213.35,103.78,210,105.2a17,17,0,0,0-1.48-1.46l1.39-3.39a2.63,2.63,0,0,0-1.44-3.41l-5.1-2.08a2.62,2.62,0,0,0-3.41,1.43l-1.39,3.4a15.9,15.9,0,0,0-2.07,0l-1.42-3.38a2.63,2.63,0,0,0-3.43-1.39l-5.07,2.13a2.62,2.62,0,0,0-1.4,3.43l1.42,3.38a16.88,16.88,0,0,0-1.46,1.47L181.73,104a2.62,2.62,0,0,0-3.41,1.44l-2.08,5.1a2.62,2.62,0,0,0,1.44,3.41l3.39,1.38a15.89,15.89,0,0,0,0,2.07l-3.37,1.43a2.62,2.62,0,0,0-1.4,3.43l2.14,5.07a2.61,2.61,0,0,0,3.42,1.4l3.38-1.42a16.88,16.88,0,0,0,1.48,1.45l-1.39,3.39a2.64,2.64,0,0,0,1.44,3.42l5.1,2.08a2.63,2.63,0,0,0,3.41-1.44l1.38-3.39a20.63,20.63,0,0,0,2.08,0l1.42,3.37a2.62,2.62,0,0,0,3.43,1.4l5.07-2.14a2.62,2.62,0,0,0,1.4-3.43l-1.42-3.37a16.85,16.85,0,0,0,1.45-1.48l3.4,1.39a2.63,2.63,0,0,0,3.41-1.44L219,122a2.63,2.63,0,0,0-1.44-3.41l-3.39-1.38a15.89,15.89,0,0,0,0-2.07l3.37-1.42a2.62,2.62,0,0,0,1.4-3.43l-2.13-5.08A2.64,2.64,0,0,0,213.35,103.78ZM207,112.27a10.23,10.23,0,1,1-13.39-5.46A10.21,10.21,0,0,1,207,112.27Z" transform="translate(20.37 51.07)"/><path class="cls-10" d="M236.13,161.76a3,3,0,0,1-3,3H94.68a3,3,0,0,1-3-3h0a3,3,0,0,1,3-3H233.1a3,3,0,0,1,3,3Z" transform="translate(20.37 51.07)"/><path class="cls-11" d="M172,158.73H94.68a3,3,0,0,0,0,6.06H172Z" transform="translate(20.37 51.07)"/><path class="cls-12" d="M317.36,34.48l-13.06,16V34.16h-1.74v.39l-13,16V34.16h-1.74v.58L276.05,49.19V33.3H126.94V54.7H276.05V51.94l11.77-14.45V54.08h1.08L302.56,37.3V54.08h1.08l15.07-18.5ZM260.58,50.09V35h12.26ZM245.84,35h12.62L245.84,50.52Zm-14.59,0h12.62L231.25,50.52Zm-14.74.58,0,0,0,0V35h12.62L216.51,50.52ZM202.13,35h12.62L202.13,50.52Zm-14.74,0H200L187.39,50.52ZM172.8,35h12.61L172.8,50.52Zm-14.74,0h12.61L158.06,50.52Zm-14.69,0H156L143.37,50.52Zm-14.55,0h12.61L128.82,50.52Zm12.81,2.5V53H129.07Zm14.7-.17V53H143.62Zm14.74-.06V53H158.31Zm14.58.19V53h-12.6Zm14.74-.19V53H187.64Zm14.39.44V53h-12.4Zm14.74-.44V53H216.76Zm14.59.19V53H231.5Zm14.38.24V53h-12.4Zm14.74,0V53h-12.4Z" transform="translate(20.37 51.07)"/><path class="cls-12" d="M319.77,33.3H170.65V54.7H319.77ZM172.39,53V35H318V53Z" transform="translate(20.37 51.07)"/><polygon class="cls-12" points="264.48 85.23 264.48 105.16 265.56 105.16 280.62 86.65 279.28 85.56 266.22 101.59 266.22 85.23 264.48 85.23"/><polygon class="cls-12" points="249.74 85.23 249.74 105.16 250.81 105.16 265.88 86.65 264.54 85.56 251.47 101.59 251.47 85.23 249.74 85.23"/><polygon class="cls-12" points="235.15 85.23 235.15 105.16 236.23 105.16 251.29 86.65 249.95 85.56 236.89 101.59 236.89 85.23 235.15 85.23"/><polygon class="cls-12" points="220.41 85.23 220.41 105.16 221.49 105.16 236.56 86.65 235.21 85.56 222.15 101.59 222.15 85.23 220.41 85.23"/><polygon class="cls-12" points="205.72 85.23 205.72 105.16 206.79 105.16 221.86 86.65 220.52 85.56 207.46 101.59 207.46 85.23 205.72 85.23"/><polygon class="cls-12" points="191.17 85.23 191.17 105.16 192.24 105.16 207.31 86.65 205.97 85.56 192.9 101.59 192.9 85.23 191.17 85.23"/><rect class="cls-13" x="280.79" y="80.03" width="30.08" height="30.08"/><path class="cls-12" d="M264.75,58.32V207.43h21.41V58.32ZM284.42,205.7H266.49V60.05h17.93Z" transform="translate(20.37 51.07)"/><polygon class="cls-12" points="286 126.59 305.91 126.59 305.91 125.52 287.41 110.45 286.31 111.8 302.35 124.86 286 124.86 286 126.59"/><polygon class="cls-12" points="286 141.34 305.91 141.34 305.91 140.26 287.41 125.19 286.31 126.54 302.35 139.6 286 139.6 286 141.34"/><polygon class="cls-12" points="286 155.92 305.91 155.92 305.91 154.85 287.41 139.78 286.31 141.13 302.35 154.19 286 154.19 286 155.92"/><polygon class="cls-12" points="286 170.66 305.91 170.66 305.91 169.59 287.41 154.52 286.31 155.87 302.35 168.93 286 168.93 286 170.66"/><polygon class="cls-12" points="286 185.04 305.91 185.04 305.91 183.97 287.41 168.9 286.31 170.25 302.35 183.31 286 183.31 286 185.04"/><polygon class="cls-12" points="286 199.79 305.91 199.79 305.91 198.71 287.41 183.64 286.31 184.99 302.35 198.05 286 198.05 286 199.79"/><polygon class="cls-12" points="286 214.37 305.91 214.37 305.91 213.3 287.41 198.23 286.31 199.58 302.35 212.64 286 212.64 286 214.37"/><polygon class="cls-12" points="286 229.12 305.91 229.12 305.91 228.04 287.41 212.97 286.31 214.32 302.35 227.38 286 227.38 286 229.12"/><polygon class="cls-12" points="286 243.81 305.91 243.81 305.91 242.73 287.41 227.66 286.31 229.01 302.35 242.07 286 242.07 286 243.81"/><polygon class="cls-12" points="286 258.36 305.91 258.36 305.91 257.29 287.41 242.22 286.31 243.56 302.35 256.62 286 256.62 286 258.36"/><rect class="cls-13" x="147.31" y="105.77" width="16.14" height="5.97"/><path class="cls-12" d="M155.94,85.28,135.88,73.37V60.66h-1.74V73.44L120,85.67c-1.06.91.48,2.44,1.53,1.53l8.11-7L134.53,76l.59-.51,19.73,11.7A1.08,1.08,0,0,0,155.94,85.28Z" transform="translate(20.37 51.07)"/><rect class="cls-14" x="144.27" y="222.88" width="10.59" height="78.25"/><rect class="cls-14" x="219.44" y="222.88" width="10.59" height="78.25"/><rect class="cls-15" x="143.21" y="232.05" width="87.54" height="47.27" rx="7.98"/><path class="cls-14" d="M202.4,230H130.82a9.7,9.7,0,0,1-9.69-9.69V189a9.7,9.7,0,0,1,9.69-9.69H202.4a9.7,9.7,0,0,1,9.69,9.69v31.31A9.7,9.7,0,0,1,202.4,230Zm-71.58-47.26a6.27,6.27,0,0,0-6.27,6.26v31.31a6.27,6.27,0,0,0,6.27,6.27H202.4a6.28,6.28,0,0,0,6.27-6.27V189a6.28,6.28,0,0,0-6.27-6.26Z" transform="translate(20.37 51.07)"/><text class="cls-16" transform="translate(153.98 258.39)">UNDER</text><text class="cls-17" transform="translate(154.88 267.12)"><tspan class="cls-18">C</tspan><tspan x="5.41" y="0">ON</tspan><tspan class="cls-19" x="17.77" y="0">S</tspan><tspan x="22.54" y="0">TRU</tspan><tspan class="cls-20" x="38.71" y="0">C</tspan><tspan x="44.19" y="0">TION</tspan></text><polygon class="cls-13" points="121.4 267.56 84.5 267.56 95.53 217.09 110.38 217.09 121.4 267.56"/><g class="cls-21"><rect class="cls-10" x="79.84" y="254.4" width="46.23" height="7.61"/><polygon class="cls-10" points="79.84 237.92 79.84 245.15 79.84 245.53 126.07 245.53 126.07 245.15 126.07 237.92 126.07 237.54 79.84 237.54 79.84 237.92"/><rect class="cls-10" x="79.84" y="221.06" width="46.23" height="7.61"/></g><path class="cls-14" d="M106.36,218.15a2.1,2.1,0,0,1-2.1,2.09H60.39a2.1,2.1,0,0,1-2.1-2.09h0a2.1,2.1,0,0,1,2.1-2.1h43.87a2.1,2.1,0,0,1,2.1,2.1Z" transform="translate(20.37 51.07)"/><g class="cls-22"><polygon class="cls-14" points="110.38 217.09 105.42 217.09 116.44 267.56 121.4 267.56 110.38 217.09"/></g><polygon class="cls-13" points="289.96 267.56 253.06 267.56 264.09 217.09 278.94 217.09 289.96 267.56"/><g class="cls-23"><rect class="cls-10" x="248.4" y="254.4" width="46.23" height="7.61"/><polygon class="cls-10" points="248.4 237.92 248.4 245.15 248.4 245.53 294.63 245.53 294.63 245.15 294.63 237.92 294.63 237.54 248.4 237.54 248.4 237.92"/><rect class="cls-10" x="248.4" y="221.06" width="46.23" height="7.61"/></g><path class="cls-14" d="M274.92,218.15a2.1,2.1,0,0,1-2.09,2.09H229a2.1,2.1,0,0,1-2.1-2.09h0a2.1,2.1,0,0,1,2.1-2.1h43.88a2.1,2.1,0,0,1,2.09,2.1Z" transform="translate(20.37 51.07)"/><g class="cls-22"><polygon class="cls-14" points="278.94 217.09 273.98 217.09 285 267.56 289.96 267.56 278.94 217.09"/></g><rect class="cls-12" x="313.97" y="193.57" width="5.88" height="94.09"/><path class="cls-13" d="M284.25,146.66a7,7,0,0,1-5.45-3.15l-12.3-21.3a7,7,0,0,1,0-6.3l12.3-21.3a7,7,0,0,1,5.45-3.15h24.59a7,7,0,0,1,5.46,3.15l12.29,21.3a7,7,0,0,1,0,6.3l-12.29,21.3a7,7,0,0,1-5.46,3.15Z" transform="translate(20.37 51.07)"/><path class="cls-14" d="M307.22,144.23H285.87a7.26,7.26,0,0,1-5.78-3.34L269.41,122.4a7.29,7.29,0,0,1,0-6.68l10.68-18.49a7.28,7.28,0,0,1,5.78-3.34h21.35A7.3,7.3,0,0,1,313,97.23l10.67,18.49a7.23,7.23,0,0,1,0,6.68L313,140.89A7.29,7.29,0,0,1,307.22,144.23ZM285.87,96.31a4.85,4.85,0,0,0-3.68,2.13l-10.68,18.49a4.83,4.83,0,0,0,0,4.26l10.68,18.49a4.85,4.85,0,0,0,3.68,2.13h21.35a4.89,4.89,0,0,0,3.69-2.13l10.67-18.49a4.83,4.83,0,0,0,0-4.26L310.91,98.44a4.89,4.89,0,0,0-3.69-2.13Z" transform="translate(20.37 51.07)"/><path class="cls-14" d="M296.55,120.06s-4.09-18.74,0-18.74S296.55,120.06,296.55,120.06Z" transform="translate(20.37 51.07)"/><path class="cls-14" d="M298.54,124.16a2,2,0,1,1-2-2A2,2,0,0,1,298.54,124.16Z" transform="translate(20.37 51.07)"/><text class="cls-24" transform="translate(306.81 187.28)"><tspan class="cls-25">ST</tspan><tspan x="8.96" y="0">OP</tspan></text><path class="cls-15" d="M49.63,191.88c-3-4.69-7.81-4.69-10.78,0L19.87,222c-3,4.7-.85,8.54,4.71,8.54H63.9c5.56,0,7.67-3.84,4.71-8.54Z" transform="translate(20.37 51.07)"/><path class="cls-14" d="M63.9,231.57H24.58c-3.09,0-5.39-1.08-6.48-3.06s-.78-4.49.87-7.11l19-30.08c1.64-2.59,3.87-4,6.29-4s4.65,1.43,6.29,4l19,30.08c1.65,2.62,2,5.14.87,7.11S67,231.57,63.9,231.57ZM44.24,189.43c-1.66,0-3.26,1.07-4.49,3l-19,30.09c-1.22,1.93-1.51,3.68-.81,5s2.34,2,4.62,2H63.9c2.28,0,3.92-.7,4.62-2s.41-3-.81-5l-19-30.09C47.5,190.5,45.9,189.43,44.24,189.43Z" transform="translate(20.37 51.07)"/><path class="cls-14" d="M44.24,217.32s-4.6-21.09,0-21.09S44.24,217.32,44.24,217.32Z" transform="translate(20.37 51.07)"/><path class="cls-14" d="M46.48,221.93a2.24,2.24,0,1,1-2.24-2.24A2.24,2.24,0,0,1,46.48,221.93Z" transform="translate(20.37 51.07)"/></g></g></svg>